<svg width="25" height="24" viewBox="0 0 25 24" fill="none" xmlns="http://www.w3.org/2000/svg">
<path d="M12.55 0.568359C6.1333 0.568359 0.883301 5.80381 0.883301 12.2519C0.883301 18.0821 5.1533 22.9211 10.73 23.7956V15.6334H7.76663V12.2519H10.73V9.67502C10.73 6.74829 12.4683 5.13918 15.14 5.13918C16.4116 5.13918 17.7416 5.36072 17.7416 5.36072V8.24081H16.2716C14.825 8.24081 14.37 9.13865 14.37 10.0598V12.2519H17.6133L17.0883 15.6334H14.37V23.7956C17.1192 23.3616 19.6225 21.9597 21.4282 19.8428C23.2339 17.726 24.2229 15.0337 24.2166 12.2519C24.2166 5.80381 18.9666 0.568359 12.55 0.568359Z" fill="#595959"/>
</svg>
