<svg width="24" height="24" viewBox="0 0 24 24" fill="none" xmlns="http://www.w3.org/2000/svg">
<path d="M6.76667 0.568359H16.5667C20.3 0.568359 23.3333 3.60003 23.3333 7.33131V17.1259C23.3333 18.9196 22.6204 20.6397 21.3514 21.908C20.0824 23.1763 18.3613 23.8889 16.5667 23.8889H6.76667C3.03333 23.8889 0 20.8572 0 17.1259V7.33131C0 5.53766 0.712915 3.81748 1.98191 2.54918C3.25091 1.28088 4.97204 0.568359 6.76667 0.568359ZM6.53333 2.90041C5.41942 2.90041 4.35114 3.34267 3.56349 4.12989C2.77583 4.91711 2.33333 5.9848 2.33333 7.0981V17.3591C2.33333 19.6795 4.21167 21.5568 6.53333 21.5568H16.8C17.9139 21.5568 18.9822 21.1146 19.7699 20.3273C20.5575 19.5401 21 18.4724 21 17.3591V7.0981C21 4.77771 19.1217 2.90041 16.8 2.90041H6.53333ZM17.7917 4.64945C18.1784 4.64945 18.5494 4.80301 18.8229 5.07635C19.0964 5.34969 19.25 5.72042 19.25 6.10698C19.25 6.49354 19.0964 6.86427 18.8229 7.13761C18.5494 7.41095 18.1784 7.56451 17.7917 7.56451C17.4049 7.56451 17.034 7.41095 16.7605 7.13761C16.487 6.86427 16.3333 6.49354 16.3333 6.10698C16.3333 5.72042 16.487 5.34969 16.7605 5.07635C17.034 4.80301 17.4049 4.64945 17.7917 4.64945ZM11.6667 6.39849C13.2138 6.39849 14.6975 7.01273 15.7915 8.10609C16.8854 9.19945 17.5 10.6824 17.5 12.2286C17.5 13.7749 16.8854 15.2578 15.7915 16.3511C14.6975 17.4445 13.2138 18.0587 11.6667 18.0587C10.1196 18.0587 8.63584 17.4445 7.54188 16.3511C6.44792 15.2578 5.83333 13.7749 5.83333 12.2286C5.83333 10.6824 6.44792 9.19945 7.54188 8.10609C8.63584 7.01273 10.1196 6.39849 11.6667 6.39849ZM11.6667 8.73054C10.7384 8.73054 9.84817 9.09908 9.19179 9.7551C8.53542 10.4111 8.16667 11.3009 8.16667 12.2286C8.16667 13.1564 8.53542 14.0461 9.19179 14.7021C9.84817 15.3581 10.7384 15.7267 11.6667 15.7267C12.5949 15.7267 13.4852 15.3581 14.1415 14.7021C14.7979 14.0461 15.1667 13.1564 15.1667 12.2286C15.1667 11.3009 14.7979 10.4111 14.1415 9.7551C13.4852 9.09908 12.5949 8.73054 11.6667 8.73054Z" fill="#595959"/>
</svg>
