<svg width="24" height="24" viewBox="0 0 24 24" fill="none" xmlns="http://www.w3.org/2000/svg">
<path d="M12.2901 0.568359C5.71008 0.568359 0.623413 5.38404 0.623413 11.8788C0.623413 15.2719 2.01175 18.222 4.28675 20.2392C4.47341 20.3908 4.59008 20.6473 4.60175 20.9038L4.66008 22.9794C4.70675 23.644 5.37175 24.0754 5.97841 23.8072L8.28841 22.7928C8.48675 22.7228 8.70841 22.6879 8.90675 22.7228C9.95675 23.0377 11.1234 23.1893 12.2901 23.1893C18.8701 23.1893 23.9567 18.3736 23.9567 11.8788C23.9567 5.38404 18.8701 0.568359 12.2901 0.568359ZM19.2901 9.26691L15.8717 14.7122C15.3234 15.5634 14.1567 15.785 13.3401 15.1437L10.6101 13.1265C10.3651 12.9399 10.0151 12.9399 9.77008 13.1265L6.08341 15.9249C5.59341 16.3097 4.95175 15.7267 5.29008 15.1903L8.70841 9.74498C9.25675 8.89378 10.4234 8.67224 11.2401 9.27857L13.9701 11.3308C14.2267 11.5173 14.5651 11.5173 14.8101 11.3308L18.4967 8.53231C18.9867 8.14752 19.6284 8.73054 19.2901 9.26691Z" fill="#595959"/>
</svg>
