<svg width="25" height="21" viewBox="0 0 25 21" fill="none" xmlns="http://www.w3.org/2000/svg">
<path d="M24.6233 2.89943C23.725 3.30754 22.7567 3.57573 21.7533 3.70399C22.78 3.086 23.5733 2.10654 23.9467 0.928851C22.9783 1.51186 21.905 1.91997 20.7733 2.15318C19.8517 1.1504 18.5567 0.567383 17.0867 0.567383C14.345 0.567383 12.105 2.80615 12.105 5.56963C12.105 5.96608 12.1517 6.35087 12.2333 6.71234C8.08001 6.50245 4.38167 4.50855 1.92001 1.48854C1.48834 2.22314 1.24334 3.086 1.24334 3.9955C1.24334 5.73288 2.11834 7.27203 3.47167 8.14655C2.64334 8.14655 1.87334 7.91334 1.19667 7.56354C1.19667 7.56354 1.19667 7.56353 1.19667 7.59852C1.19667 10.0238 2.92334 12.0527 5.21001 12.5075C4.79001 12.6241 4.34667 12.6824 3.89167 12.6824C3.57667 12.6824 3.26167 12.6474 2.95834 12.5891C3.58834 14.5597 5.42001 16.0289 7.62501 16.0639C5.92167 17.4165 3.76334 18.2093 1.40667 18.2093C1.01001 18.2093 0.613341 18.186 0.216675 18.1394C2.43334 19.5619 5.07001 20.3898 7.89334 20.3898C17.0867 20.3898 22.1383 12.764 22.1383 6.15264C22.1383 5.9311 22.1383 5.72121 22.1267 5.49967C23.1067 4.80005 23.9467 3.91388 24.6233 2.89943Z" fill="#595959"/>
</svg>
