<svg width="24" height="24" viewBox="0 0 24 24" fill="none" xmlns="http://www.w3.org/2000/svg">
<path d="M11.9884 0.568359C5.61837 0.568359 0.426708 5.75717 0.426708 12.1237C0.426708 14.1642 0.963374 16.1465 1.96671 17.8955L0.333374 23.8889L6.45837 22.2798C8.15004 23.2009 10.0517 23.6906 11.9884 23.6906C18.3584 23.6906 23.55 18.5018 23.55 12.1353C23.55 9.04536 22.3484 6.14196 20.1667 3.96149C17.985 1.76937 15.08 0.568359 11.9884 0.568359ZM12 2.51562C14.5667 2.51562 16.97 3.5184 18.79 5.3374C20.5984 7.1564 21.6017 9.57008 21.6017 12.1353C21.6017 17.4291 17.285 21.7317 11.9884 21.7317C10.2617 21.7317 8.57004 21.277 7.10004 20.3908L6.75004 20.1926L3.11004 21.1487L4.07837 17.604L3.84504 17.2309C2.88837 15.7267 2.37504 13.9427 2.37504 12.1237C2.38671 6.82992 6.69171 2.51562 12 2.51562ZM7.89337 6.78328C7.70671 6.78328 7.39171 6.85324 7.12337 7.14474C6.86671 7.43625 6.10837 8.14753 6.10837 9.55842C6.10837 10.981 7.14671 12.3452 7.27504 12.5434C7.43837 12.7417 9.32837 15.6567 12.2334 16.8927C12.9217 17.2075 13.4584 17.3824 13.8784 17.5107C14.5667 17.7323 15.1967 17.6973 15.6984 17.6273C16.2584 17.5457 17.4017 16.9277 17.6467 16.2514C17.8917 15.5751 17.8917 15.0038 17.8217 14.8755C17.74 14.7589 17.5534 14.6889 17.2617 14.5607C16.97 14.3974 15.5467 13.6978 15.29 13.6045C15.0217 13.5112 14.8584 13.4646 14.6367 13.7444C14.45 14.036 13.89 14.6889 13.7267 14.8755C13.5517 15.0737 13.3884 15.097 13.1084 14.9571C12.805 14.8055 11.8717 14.5024 10.775 13.5229C9.91171 12.7533 9.34004 11.8088 9.16504 11.5173C9.02504 11.2375 9.15337 11.0626 9.29337 10.9343C9.42171 10.8061 9.60837 10.5962 9.72504 10.4213C9.87671 10.258 9.92338 10.1298 10.0167 9.94321C10.11 9.74498 10.0634 9.58174 9.99337 9.44181C9.92337 9.31355 9.34004 7.86768 9.09504 7.29633C8.86171 6.73663 8.62837 6.8066 8.44171 6.79494C8.27837 6.79494 8.09171 6.78328 7.89337 6.78328Z" fill="#595959"/>
</svg>
