<svg width="24" height="17" viewBox="0 0 24 17" fill="none" xmlns="http://www.w3.org/2000/svg">
<path d="M9.88338 12.2267L15.9384 8.72858L9.88338 5.23051V12.2267ZM23.37 3.09668C23.5217 3.64471 23.6267 4.37931 23.6967 5.31213C23.7784 6.24495 23.8134 7.04951 23.8134 7.74912L23.8834 8.72858C23.8834 11.2822 23.6967 13.1595 23.37 14.3605C23.0784 15.4099 22.4017 16.0862 21.3517 16.3777C20.8034 16.5293 19.8 16.6342 18.26 16.7042C16.7434 16.7858 15.355 16.8208 14.0717 16.8208L12.2167 16.8908C7.32838 16.8908 4.28338 16.7042 3.08172 16.3777C2.03172 16.0862 1.35505 15.4099 1.06338 14.3605C0.911716 13.8125 0.806716 13.0779 0.736716 12.145C0.655049 11.2122 0.620049 10.4077 0.620049 9.70805L0.550049 8.72858C0.550049 6.17499 0.736716 4.29769 1.06338 3.09668C1.35505 2.04726 2.03172 1.37096 3.08172 1.07946C3.63005 0.927874 4.63338 0.822932 6.17338 0.75297C7.69005 0.671348 9.07838 0.636368 10.3617 0.636368L12.2167 0.566406C17.105 0.566406 20.15 0.75297 21.3517 1.07946C22.4017 1.37096 23.0784 2.04726 23.37 3.09668Z" fill="#595959"/>
</svg>
