<svg width="150" height="70" viewBox="0 0 150 70" fill="none" xmlns="http://www.w3.org/2000/svg">
<path d="M39.2401 50.0709H35.0623V40.3543C35.0623 39.6627 35.2629 39.12 35.6728 38.7261C36.0827 38.3322 36.6322 38.1309 37.3125 38.1309C37.6876 38.1309 38.0626 38.1659 38.4202 38.2271C38.7778 38.2884 39.0569 38.3497 39.2313 38.3935V50.0709H39.2401ZM35.0623 47.4798H39.275V58.2906C39.1005 58.3343 38.8301 58.3868 38.4638 58.4394C38.0975 58.4919 37.7312 58.5181 37.3561 58.5181C36.5624 58.5181 35.9781 58.3693 35.6205 58.0717C35.2541 57.7741 35.071 57.2751 35.071 56.5923V47.4798H35.0623ZM37.2864 50.3772V46.9546H47.1945C47.3079 47.1296 47.4125 47.366 47.5085 47.6548C47.6044 47.9437 47.6567 48.2501 47.6567 48.5827C47.6567 49.1605 47.5259 49.6069 47.2555 49.9133C46.9939 50.2284 46.6101 50.3772 46.1304 50.3772H37.2864ZM37.3212 41.5623V38.1396H48.3196C48.433 38.2972 48.5377 38.5248 48.6336 38.8224C48.7295 39.12 48.7819 39.4352 48.7819 39.7678C48.7819 40.3455 48.651 40.792 48.3807 41.0984C48.119 41.4135 47.7352 41.5623 47.2555 41.5623H37.3212Z" fill="#765201"/>
<path d="M56.6404 49.8432H52.4277V38.1308C52.6283 38.087 52.9074 38.0345 53.2738 37.9645C53.6401 37.8944 54.0064 37.8682 54.3814 37.8682C55.1751 37.8682 55.7508 38.0082 56.1084 38.2796C56.4573 38.5597 56.6404 39.0762 56.6404 39.829V49.8432ZM52.4365 45.1162H56.6492V58.0891L54.6954 58.3517C54.0064 58.3517 53.4656 58.1504 53.0557 57.739C52.6458 57.3276 52.4452 56.7936 52.4452 56.1283V45.1162H52.4365ZM54.6867 58.3605V54.9028H65.2228C65.3537 55.0779 65.467 55.3142 65.5717 55.6031C65.6676 55.892 65.72 56.2159 65.72 56.566C65.72 57.1612 65.5804 57.6164 65.3013 57.9141C65.0222 58.2117 64.6559 58.3605 64.1936 58.3605H54.6867Z" fill="#765201"/>
<path d="M87.2369 48.2149C87.2369 50.5171 86.8008 52.4604 85.9286 54.0361C85.0564 55.6118 83.8615 56.8023 82.3526 57.6076C80.835 58.4129 79.1167 58.8244 77.1979 58.8244C75.2965 58.8244 73.587 58.4217 72.0781 57.6076C70.5605 56.8023 69.3743 55.603 68.5021 54.0361C67.6299 52.4604 67.1938 50.5259 67.1938 48.2149C67.1938 45.9039 67.6387 43.9694 68.537 42.3937C69.4354 40.8181 70.639 39.6276 72.1479 38.8222C73.6568 38.0169 75.3489 37.6055 77.1979 37.6055C79.0993 37.6055 80.8088 38.0081 82.3177 38.8222C83.8266 39.6276 85.0302 40.8268 85.9111 42.3937C86.7921 43.9606 87.2369 45.9039 87.2369 48.2149ZM82.9544 48.2149C82.9544 45.8864 82.4311 44.1094 81.3844 42.8927C80.3378 41.6759 78.9336 41.0632 77.1892 41.0632C75.4884 41.0632 74.1103 41.6759 73.0637 42.8927C72.0171 44.1094 71.485 45.8864 71.485 48.2149C71.485 50.5609 72.0084 52.3466 73.0463 53.5722C74.0842 54.7889 75.4797 55.4017 77.2241 55.4017C78.9685 55.4017 80.364 54.7889 81.4019 53.5722C82.4398 52.3466 82.9544 50.5609 82.9544 48.2149Z" fill="#765201"/>
<path d="M98.7672 41.5888H98.6015C98.3137 42.3853 97.9997 43.2957 97.6595 44.3199C97.3194 45.3441 96.9618 46.4033 96.578 47.4975C96.203 48.5917 95.8454 49.6509 95.5139 50.6751L95.0517 52.7409C94.9209 53.1611 94.7813 53.625 94.6418 54.1415C94.4935 54.6492 94.3452 55.1657 94.1795 55.6909C94.0138 56.2161 93.8568 56.7063 93.7172 57.1703C93.5689 57.6342 93.4468 58.0457 93.3335 58.4046C93.1154 58.4746 92.8712 58.5359 92.6183 58.5884C92.3653 58.6409 92.0601 58.6497 91.7112 58.6497C91.0047 58.6497 90.4465 58.5096 90.0366 58.2382C89.6266 57.9669 89.426 57.5467 89.426 56.9952C89.426 56.7501 89.4609 56.4962 89.5394 56.2336C89.6179 55.971 89.6964 55.6647 89.7836 55.332C90.0017 54.5967 90.3069 53.6863 90.682 52.5921C91.057 51.4979 91.467 50.2987 91.9118 49.0206C92.3566 47.7338 92.8101 46.4383 93.2898 45.1252C93.7608 43.8209 94.2144 42.5954 94.633 41.4487C95.0517 40.3107 95.418 39.3478 95.7233 38.5687C95.9849 38.4112 96.3949 38.2711 96.9531 38.1398C97.5026 38.0085 98.0695 37.9385 98.6451 37.9385C99.3952 37.9385 100.084 38.0523 100.721 38.2711C101.349 38.49 101.741 38.8489 101.898 39.3391C102.361 40.5558 102.858 41.9564 103.39 43.5321C103.922 45.1077 104.463 46.7447 105.012 48.4516C105.562 50.1586 106.094 51.8218 106.6 53.4412C107.105 55.0606 107.559 56.5225 107.96 57.8356C107.742 58.0807 107.437 58.282 107.053 58.4308C106.669 58.5796 106.207 58.6497 105.692 58.6497C104.96 58.6497 104.436 58.5096 104.123 58.2382C103.8 57.9581 103.556 57.5379 103.372 56.9602L102.012 52.6009L101.584 50.4737C101.227 49.3445 100.887 48.2328 100.538 47.1298C100.198 46.0356 99.8662 45.0114 99.5609 44.0573C99.2557 43.0944 98.9853 42.2715 98.7672 41.5888ZM93.2026 53.5288L94.7639 50.2374H103.05L103.678 53.5288H93.2026Z" fill="#204D25"/>
<path d="M128.335 52.4256V57.8178C128.073 58.0367 127.715 58.2205 127.27 58.3693C126.826 58.5094 126.32 58.5882 125.744 58.5882C125.055 58.5882 124.445 58.4744 123.904 58.2555C123.363 58.0367 122.901 57.5465 122.526 56.7937L117.65 48.0488C117.389 47.5148 117.101 46.9633 116.804 46.3856C116.508 45.8078 116.22 45.2476 115.958 44.6873C115.696 44.1359 115.452 43.6194 115.225 43.1555L111.248 44.0833V38.8574C111.493 38.551 111.85 38.3147 112.33 38.1571C112.801 37.9995 113.315 37.9208 113.874 37.9208C114.536 37.9208 115.147 38.0346 115.696 38.2534C116.246 38.4722 116.717 38.9537 117.092 39.6802L121.968 48.4252C122.255 48.9591 122.552 49.5106 122.848 50.0884C123.145 50.6661 123.424 51.2263 123.677 51.7866C123.93 52.338 124.157 52.8545 124.357 53.3185L128.335 52.4256ZM111.266 42.6477L115.007 42.5514C115.095 43.3918 115.164 44.2847 115.225 45.2126C115.278 46.1405 115.313 47.0683 115.321 47.97C115.33 48.8803 115.339 49.7557 115.339 50.5961V58.3168C115.182 58.3606 114.929 58.4131 114.563 58.4656C114.196 58.5181 113.839 58.5532 113.481 58.5532C112.687 58.5532 112.12 58.4131 111.772 58.133C111.431 57.8529 111.257 57.3627 111.257 56.6536V42.6477H111.266ZM128.335 53.7912L124.558 53.8874C124.384 52.1805 124.279 50.5085 124.261 48.8804C124.235 47.2522 124.227 45.6678 124.227 44.1359V38.1484C124.427 38.1046 124.698 38.0521 125.038 37.982C125.378 37.912 125.753 37.8857 126.145 37.8857C126.922 37.8857 127.48 38.0346 127.82 38.3147C128.16 38.6035 128.335 39.0937 128.335 39.7765V53.7912Z" fill="#204D25"/>
<path d="M141.287 38.1572L141.356 41.5799H132.041C131.928 41.4048 131.832 41.1685 131.745 40.8796C131.658 40.5907 131.614 40.2669 131.614 39.9167C131.614 39.3215 131.745 38.875 132.015 38.5862C132.277 38.2973 132.643 38.1572 133.105 38.1572H141.287ZM137.676 40.687H141.854V58.2819C141.679 58.3519 141.409 58.4132 141.042 58.4657C140.676 58.5183 140.31 58.5533 139.935 58.5533C139.115 58.5533 138.539 58.4045 138.19 58.1068C137.85 57.8092 137.676 57.3015 137.676 56.5924V40.687ZM138.339 41.5887L138.243 38.166H147.558C147.671 38.3235 147.767 38.5511 147.854 38.8488C147.942 39.1464 147.985 39.4615 147.985 39.7942C147.985 40.3719 147.854 40.8183 147.584 41.1247C147.322 41.4311 146.956 41.5887 146.494 41.5887H138.339Z" fill="#204D25"/>
<path d="M74.4855 46.9282C74.4855 46.9282 76.7009 51.5414 72.3748 52.9595C72.3748 52.9507 70.1594 49.4755 74.4855 46.9282Z" fill="#765201"/>
<path d="M120.433 38.5772C120.433 38.5772 124.253 38.2621 124.628 43.2254C124.619 43.2254 120.616 44.1708 120.433 38.5772Z" fill="#204D25"/>
<path d="M4.5354 63.6129C4.5354 63.6129 16.8944 62.7026 21.9967 49.1606C22.0055 49.1606 19.8511 66.6855 4.5354 63.6129Z" fill="#204D25"/>
<path d="M11.0071 67.0268C11.0071 67.0268 18.944 63.0439 22.0055 53.4849C22.0055 53.4849 24.8401 65.4336 11.0071 67.0268Z" fill="#765201"/>
<path d="M23.2526 55.9883C23.2526 55.9883 26.314 63.2713 44.6824 65.6611C44.6824 65.6611 29.0352 68.1646 22.5723 60.8816C22.5723 60.8816 23.4793 59.4022 23.2526 55.9883Z" fill="#204D25"/>
<path d="M23.0259 51.0952C23.0259 51.0952 27.5613 60.5404 47.0636 63.8406C47.0636 63.8406 26.9944 64.6371 23.0259 51.0952Z" fill="#765201"/>
<path d="M24.0463 40.3979C24.0463 40.3979 20.5314 53.2571 33.4573 57.5814C33.4573 57.5814 24.4998 53.2571 24.0463 40.3979Z" fill="#204D25"/>
<path d="M33.2306 32.0908C33.2306 32.0908 23.2527 42.2188 31.1896 53.7124C31.1896 53.7124 18.3771 41.9912 33.2306 32.0908Z" fill="#204D25"/>
<path d="M30.8495 40.2841C30.8495 40.2841 34.4778 34.0253 44.5691 30.7251C54.6604 27.425 56.021 25.8318 56.9281 24.6938C56.71 24.974 55.9687 25.1578 55.6634 25.3066C54.5034 25.8493 53.3172 26.357 52.131 26.8297C50.1163 27.6351 48.0579 28.3091 45.9733 28.9044C44.0981 29.4383 42.1182 29.771 40.3302 30.5851C37.5218 31.8543 35.0883 33.9552 33.1346 36.3187C32.4805 37.1153 31.8525 37.9469 31.3553 38.8485C31.1635 39.1812 30.7099 39.8552 30.8495 40.2841Z" fill="#204D25"/>
<path d="M25.2937 36.6428C25.2937 36.6428 32.5504 29.4735 37.9929 27.6527C43.4353 25.832 51.1455 23.3284 53.9802 14.2246C53.9802 14.2246 47.6306 23.4422 40.0338 25.0354C32.0968 27.4164 27.6748 32.8874 25.2937 36.6428Z" fill="#765201"/>
<path d="M36.5187 16.1504C36.5187 16.1504 37.5391 23.2058 30.736 26.7336C27.5612 28.6681 24.9534 32.7649 24.9534 32.7649C25.0406 32.6335 25.0493 32.3359 25.0929 32.1871C25.2761 31.6181 25.5552 31.0754 25.8692 30.5677C27.1949 28.4318 29.201 26.7686 31.2419 25.368C32.8118 24.2913 34.1027 22.4443 35.0621 20.8248C35.9081 19.4155 36.5187 17.8223 36.5187 16.1504Z" fill="#204D25"/>
<path d="M20.7319 16.6143C20.7319 16.6143 24.997 19.2666 23.4357 24.8865C22.8601 27.6439 23.7148 31.0578 23.7148 31.0578C23.6887 30.944 23.5317 30.804 23.4793 30.7077C23.27 30.34 23.1217 29.9198 23.0171 29.5084C22.5461 27.7489 22.6856 25.8056 22.9735 23.9586C23.2002 22.5405 22.8688 20.9298 22.4938 19.6255C22.1623 18.47 21.6216 17.3846 20.7319 16.6143Z" fill="#204D25"/>
<path d="M40.4697 32.8701C40.4697 32.8701 50.1075 33.2115 56.3437 34.2357C62.5799 35.2599 71.3105 32.9839 73.0113 30.9355C73.0113 30.9355 66.435 33.0977 57.2507 32.6425C48.0665 32.1873 47.4996 32.0735 40.4697 32.8701Z" fill="#765201"/>
<path d="M12.7166 27.4429C12.7166 27.4429 28.8609 27.5742 22.4154 41.1161C22.4154 41.1161 26.2705 29.8414 12.7166 27.4429Z" fill="#765201"/>
<path d="M10.5885 29.1847C10.5885 29.1847 6.9514 28.0117 5.59078 32.3798C4.68369 34.8571 3.77661 35.5749 3.77661 35.5749C3.77661 35.5749 12.734 36.1001 11.3734 29.9725C11.3734 29.9725 8.90512 33.1676 6.56763 33.8854C6.56763 33.8767 9.74242 31.9246 10.5885 29.1847Z" fill="#204D25"/>
<path d="M10.0215 25.8756C10.0215 25.8756 9.06209 22.1378 4.63134 23.3283C2.04093 23.8798 0.950684 23.4946 0.950684 23.4946C0.950684 23.4946 5.32038 31.4255 9.78601 26.9698C9.78601 26.9698 5.75648 26.5759 3.88998 24.974C3.88126 24.9565 7.24793 26.6197 10.0215 25.8756Z" fill="#765201"/>
<path d="M17.8277 15.3537C17.8277 15.3537 17.4526 12.3862 13.929 12.8589C11.888 13.034 11.0769 12.6226 11.0769 12.6226C11.0769 12.6226 13.6673 19.1528 17.5311 16.159C17.5311 16.159 14.4697 15.4675 13.1876 14.0407C13.1963 14.0494 15.621 15.6601 17.8277 15.3537Z" fill="#204D25"/>
<path d="M11.4868 24.7726C11.4868 24.7726 7.68405 24.3349 8.24225 19.783C8.43414 17.1482 7.9021 16.1152 7.9021 16.1152C7.9021 16.1152 16.2926 19.3628 12.5247 24.3875C12.5247 24.3875 11.5915 20.4483 9.75115 18.8201C9.75115 18.8201 11.8444 21.9189 11.4868 24.7726Z" fill="#204D25"/>
<path d="M33.815 15.4325C33.815 15.4325 30.9368 17.5509 28.4423 14.0757C26.9073 12.1499 25.8955 11.7822 25.8955 11.7822C25.8955 11.7822 33.6929 8.67467 34.2773 14.5134C34.2773 14.5134 31.1548 12.4125 28.8697 12.465C28.861 12.4563 32.2625 13.2528 33.815 15.4325Z" fill="#204D25"/>
<path d="M37.1554 13.4019C37.1554 13.4019 34.6347 10.6357 37.9491 7.6332C39.7719 5.81243 40.0423 4.70947 40.0423 4.70947C40.0423 4.70947 44.1591 12.5002 38.1758 13.787C38.1758 13.787 39.9987 10.2768 39.6847 7.89581C39.676 7.89581 39.2399 11.5286 37.1554 13.4019Z" fill="#765201"/>
<path d="M39.6675 16.7809C39.6675 16.7809 41.0543 13.2356 45.2582 14.9251C47.7266 15.7742 48.8517 15.5291 48.8517 15.5291C48.8517 15.5291 43.6185 22.7859 39.7809 17.8838C39.7809 17.8838 43.7842 17.9801 45.799 16.6233C45.799 16.6146 42.3015 17.8488 39.6675 16.7809Z" fill="#204D25"/>
<path d="M21.5956 13.4104C21.5956 13.4104 19.7116 11.6772 21.7962 9.43626C22.93 8.08819 23.0522 7.31787 23.0522 7.31787C23.0522 7.31787 26.3142 12.3775 22.3108 13.603C22.3108 13.603 23.3487 11.1082 22.9911 9.50629C22.9824 9.50629 22.9039 12.0098 21.5956 13.4104Z" fill="#204D25"/>
<path d="M19.5894 13.4456C19.5894 13.4456 21.8746 11.0121 18.9615 8.29843C17.3566 6.65274 17.1386 5.66357 17.1386 5.66357C17.1386 5.66357 13.3707 12.544 18.6911 13.7607C18.6911 13.7607 17.1124 10.6182 17.4264 8.49976C17.4177 8.50852 17.7578 11.7561 19.5894 13.4456Z" fill="#765201"/>
<path d="M27.2821 25.9019C27.2821 25.9019 30.0906 25.0703 29.0701 21.7176C28.5817 19.7568 28.8521 18.9077 28.8521 18.9077C28.8521 18.9077 22.956 22.4529 26.4535 25.7443C26.4535 25.7443 26.6454 22.6543 27.8142 21.1924C27.8142 21.1924 26.6454 23.8098 27.2821 25.9019Z" fill="#204D25"/>
<path d="M51.006 11.7475C51.006 11.7475 51.6427 7.79961 46.9415 7.08181C44.2552 6.53033 43.3743 5.69873 43.3743 5.69873C43.3743 5.69873 44.2465 15.0476 50.3169 12.6754C50.3169 12.6754 46.6537 10.627 45.546 8.32483C45.5548 8.31608 48.058 11.3011 51.006 11.7475Z" fill="#204D25"/>
<path d="M54.5732 10.0929C54.5732 10.0929 57.966 8.50848 56.0472 4.45553C55.0529 2.06578 55.2361 0.945312 55.2361 0.945312C55.2361 0.945312 48.4504 6.56517 53.4917 10.0491C53.4917 10.0491 53.1428 6.10122 54.3464 4.0266C54.3551 4.0266 53.3696 7.56309 54.5732 10.0929Z" fill="#765201"/>
<path d="M59.789 20.3699C59.789 20.3699 63.4261 20.2736 63.2865 15.9143C63.3301 13.402 63.9232 12.4653 63.9232 12.4653C63.9232 12.4653 55.6984 14.8288 58.8471 19.9059C58.8471 19.9059 60.0681 16.2557 61.9433 14.8726C61.9346 14.8726 59.6844 17.6388 59.789 20.3699Z" fill="#204D25"/>
<path d="M57.0066 11.9223C57.0066 11.9223 55.803 7.79061 60.7309 6.38127C63.5306 5.42712 64.3592 4.4292 64.3592 4.4292C64.3592 4.4292 64.6732 14.5484 57.8613 12.824C57.8613 12.824 61.5071 10.1366 62.3793 7.51924C62.3793 7.528 60.0942 11.0557 57.0066 11.9223Z" fill="#204D25"/>
<path d="M61.7251 22.5582C61.7251 22.5582 64.394 24.379 66.5396 21.1664C67.8653 19.3719 68.7724 19.013 68.7724 19.013C68.7724 19.013 61.6292 16.4482 61.2803 21.7441C61.2803 21.7441 64.0364 19.7483 66.1035 19.722C66.1035 19.722 63.0595 20.5449 61.7251 22.5582Z" fill="#765201"/>
<path d="M78.0439 31.9856C78.0439 31.9856 79.9889 35.8285 84.5331 33.465C87.2194 32.2395 88.5103 32.397 88.5103 32.397C88.5103 32.397 81.838 24.8076 78.0439 30.7426C78.0439 30.7426 82.5357 30.1911 84.9517 31.5041C84.9604 31.5041 80.8873 30.4975 78.0439 31.9856Z" fill="#204D25"/>
<path d="M74.3983 26.1646C74.3983 26.1646 78.5063 24.9303 77.0061 20.0195C76.2822 17.1483 76.666 15.9053 76.666 15.9053C76.666 15.9053 68.0313 21.14 73.1772 25.9457C73.1772 25.9457 73.4389 21.4113 75.1484 19.2579C75.1571 19.2492 73.4476 23.092 74.3983 26.1646Z" fill="#204D25"/>
<path d="M62.0131 24.5189C62.0131 24.5189 64.4378 22.1992 67.1765 25.1229C68.8337 26.7336 69.828 26.9437 69.828 26.9437C69.828 26.9437 62.9551 30.7953 61.6904 25.438C61.6904 25.438 64.8565 27.0137 66.9759 26.681C66.9846 26.681 63.7226 26.3572 62.0131 24.5189Z" fill="#204D25"/>
<path d="M78.1923 28.2653C78.1923 28.2653 82.3614 29.2982 83.5563 24.2999C84.3849 21.455 85.353 20.5796 85.353 20.5796C85.353 20.5796 75.2704 20.6846 77.2678 27.4425C77.2678 27.4425 79.7884 23.6696 82.3526 22.6892C82.3439 22.6892 78.9249 25.1315 78.1923 28.2653Z" fill="#765201"/>
<path d="M50.3168 52.6533C50.3168 52.6533 54.0149 52.9597 53.3956 57.9756C53.4044 57.9756 49.6365 56.9864 50.3168 52.6533Z" fill="#765201"/>
<path d="M105.797 37.019C105.797 37.019 106.966 42.0524 102.622 42.7177C102.622 42.7177 101.122 38.6122 105.797 37.019Z" fill="#204D25"/>
<path d="M144.802 43.812C144.802 43.812 145.805 48.7753 141.365 48.7053C141.356 48.7053 140.79 44.381 144.802 43.812Z" fill="#204D25"/>
<path d="M72.7759 28.1165C72.7759 29.1407 73.2294 29.9723 73.7963 29.9723C74.3545 29.9723 74.8168 29.1407 74.8168 28.1165C74.8168 27.0923 74.3633 26.2607 73.7963 26.2607C73.2294 26.2607 72.7759 27.0923 72.7759 28.1165Z" fill="url(#paint0_linear_159_636)"/>
<path d="M71.3018 29.4124C71.9559 30.2003 72.8456 30.5417 73.2729 30.1828C73.7003 29.8239 73.5172 28.8872 72.863 28.0994C72.2089 27.3116 71.3192 26.9702 70.8918 27.3291C70.4558 27.688 70.6389 28.6246 71.3018 29.4124Z" fill="url(#paint1_linear_159_636)"/>
<path d="M70.9967 31.3467C72.0085 31.5217 72.8981 31.2154 72.9941 30.6639C73.09 30.1124 72.3574 29.5172 71.3456 29.3333C70.3339 29.1495 69.4442 29.4646 69.3483 30.0161C69.2523 30.5764 69.985 31.1716 70.9967 31.3467Z" fill="url(#paint2_linear_159_636)"/>
<path d="M72.0083 33.0361C72.8979 32.5197 73.3863 31.7143 73.1072 31.2241C72.8281 30.7339 71.8775 30.7514 70.9965 31.2679C70.1069 31.7844 69.6185 32.5897 69.8976 33.0799C70.1679 33.5701 71.1186 33.5439 72.0083 33.0361Z" fill="url(#paint3_linear_159_636)"/>
<path d="M73.8575 33.6754C74.2064 32.7125 74.0668 31.7671 73.5348 31.5745C73.0027 31.3819 72.2963 32.0035 71.9474 32.9751C71.5985 33.938 71.7381 34.8834 72.2701 35.076C72.7934 35.2598 73.5086 34.6383 73.8575 33.6754Z" fill="url(#paint4_linear_159_636)"/>
<path d="M75.6802 32.9665C75.3314 32.0036 74.6162 31.3733 74.0928 31.5659C73.5608 31.7585 73.4213 32.6951 73.7701 33.6668C74.119 34.6297 74.8342 35.2599 75.3575 35.0674C75.8896 34.8748 76.0291 33.9294 75.6802 32.9665Z" fill="url(#paint5_linear_159_636)"/>
<path d="M76.6311 31.2503C75.7414 30.7339 74.7995 30.7163 74.5204 31.2066C74.2413 31.6968 74.7297 32.5108 75.6193 33.0186C76.509 33.535 77.4509 33.5525 77.73 33.0623C78.0092 32.5721 77.5207 31.7668 76.6311 31.2503Z" fill="url(#paint6_linear_159_636)"/>
<path d="M76.256 29.3249C75.2443 29.4999 74.5116 30.0952 74.6076 30.6554C74.7035 31.2069 75.6019 31.5133 76.6049 31.3382C77.6166 31.1631 78.3493 30.5679 78.2533 30.0076C78.1574 29.4474 77.2678 29.141 76.256 29.3249Z" fill="url(#paint7_linear_159_636)"/>
<path d="M74.7383 28.0819C74.0841 28.8697 73.8922 29.7976 74.3283 30.1653C74.7557 30.5242 75.6454 30.1828 76.2995 29.395C76.9537 28.6071 77.1455 27.6792 76.7094 27.3116C76.2733 26.9527 75.3924 27.3028 74.7383 28.0819Z" fill="url(#paint8_linear_159_636)"/>
<path d="M75.1658 30.8831C75.1658 31.6446 74.5465 32.2662 73.7877 32.2662C73.0289 32.2662 72.4097 31.6446 72.4097 30.8831C72.4097 30.1215 73.0289 29.5 73.7877 29.5C74.5553 29.5 75.1658 30.1215 75.1658 30.8831Z" fill="url(#paint9_radial_159_636)"/>
<path d="M12.071 25.5606C12.071 26.2259 12.3676 26.7598 12.7252 26.7598C13.0915 26.7598 13.3793 26.2259 13.3793 25.5606C13.3793 24.8953 13.0828 24.3613 12.7252 24.3613C12.3589 24.3613 12.071 24.8953 12.071 25.5606Z" fill="url(#paint10_linear_159_636)"/>
<path d="M11.1205 26.392C11.5479 26.8997 12.1148 27.1186 12.3939 26.891C12.673 26.6546 12.5509 26.0594 12.1322 25.5517C11.7049 25.044 11.1379 24.8251 10.8588 25.0527C10.571 25.2803 10.6931 25.8843 11.1205 26.392Z" fill="url(#paint11_linear_159_636)"/>
<path d="M10.92 27.6353C11.5741 27.7491 12.1498 27.5565 12.2108 27.1976C12.2719 26.8387 11.8009 26.4536 11.1468 26.3398C10.4926 26.226 9.91696 26.4186 9.85591 26.7775C9.79485 27.1364 10.2658 27.5215 10.92 27.6353Z" fill="url(#paint12_linear_159_636)"/>
<path d="M11.5739 28.7208C12.1495 28.3882 12.4635 27.863 12.2804 27.5478C12.0972 27.2327 11.4867 27.2415 10.9198 27.5741C10.3528 27.9067 10.0301 28.432 10.2133 28.7471C10.3877 29.071 10.9983 29.0535 11.5739 28.7208Z" fill="url(#paint13_linear_159_636)"/>
<path d="M12.7601 29.141C12.9869 28.5195 12.8909 27.9155 12.5508 27.793C12.2106 27.6704 11.7484 28.0731 11.5216 28.6946C11.2948 29.3161 11.3908 29.9201 11.7309 30.0426C12.0798 30.1652 12.5421 29.7625 12.7601 29.141Z" fill="url(#paint14_linear_159_636)"/>
<path d="M13.9376 28.6858C13.7108 28.0643 13.2486 27.6616 12.9084 27.7842C12.5683 27.9067 12.4723 28.5107 12.6991 29.1322C12.9259 29.7537 13.3881 30.1564 13.7283 30.0339C14.0684 29.9113 14.1644 29.3073 13.9376 28.6858Z" fill="url(#paint15_linear_159_636)"/>
<path d="M14.5569 27.5741C13.9812 27.2415 13.3794 27.2327 13.1962 27.5478C13.0131 27.863 13.3271 28.3882 13.9027 28.7208C14.4784 29.0535 15.0802 29.0622 15.2633 28.7471C15.4378 28.432 15.1238 27.9067 14.5569 27.5741Z" fill="url(#paint16_linear_159_636)"/>
<path d="M14.3128 26.331C13.6587 26.4448 13.1877 26.83 13.2487 27.1889C13.3098 27.5478 13.8854 27.7403 14.5396 27.6265C15.1937 27.5127 15.6647 27.1276 15.6037 26.7687C15.5426 26.4098 14.9582 26.2172 14.3128 26.331Z" fill="url(#paint17_linear_159_636)"/>
<path d="M13.3271 25.5346C12.8997 26.0423 12.7863 26.6463 13.0654 26.8739C13.3445 27.1102 13.9115 26.8826 14.3388 26.3749C14.7662 25.8672 14.8796 25.2632 14.6005 25.0356C14.3214 24.808 13.7545 25.0269 13.3271 25.5346Z" fill="url(#paint18_linear_159_636)"/>
<path d="M13.5015 27.3378C13.5015 27.7668 13.1526 28.1169 12.7252 28.1169C12.2979 28.1169 11.949 27.7668 11.949 27.3378C11.949 26.9089 12.2979 26.5588 12.7252 26.5588C13.1526 26.55 13.5015 26.9089 13.5015 27.3378Z" fill="url(#paint19_radial_159_636)"/>
<path d="M19.8598 14.0585C19.8075 14.6713 20.0342 15.1965 20.3744 15.2315C20.7145 15.2578 21.0285 14.7851 21.0809 14.1723C21.1332 13.5596 20.9064 13.0344 20.5663 12.9994C20.2348 12.9643 19.9121 13.4458 19.8598 14.0585Z" fill="url(#paint20_linear_159_636)"/>
<path d="M18.9092 14.7585C19.2668 15.2662 19.7726 15.52 20.0517 15.3275C20.3308 15.1349 20.2698 14.5659 19.9122 14.0582C19.5546 13.5505 19.0487 13.2966 18.7696 13.4892C18.4905 13.6818 18.5516 14.2508 18.9092 14.7585Z" fill="url(#paint21_linear_159_636)"/>
<path d="M18.6214 15.9053C19.2145 16.0629 19.7727 15.9316 19.8599 15.5989C19.9471 15.2663 19.5372 14.8724 18.9441 14.7148C18.351 14.5572 17.7928 14.6885 17.7056 15.0212C17.6096 15.3451 18.0196 15.7477 18.6214 15.9053Z" fill="url(#paint22_linear_159_636)"/>
<path d="M19.1361 16.9731C19.6943 16.7105 20.0344 16.2465 19.8861 15.9401C19.7466 15.6338 19.1709 15.59 18.6127 15.8526C18.0545 16.1152 17.7144 16.5792 17.8627 16.8855C18.0109 17.1919 18.5779 17.2357 19.1361 16.9731Z" fill="url(#paint23_linear_159_636)"/>
<path d="M20.2174 17.4545C20.479 16.8943 20.4441 16.3253 20.1301 16.1765C19.8249 16.0364 19.3626 16.3691 19.101 16.9293C18.8393 17.4896 18.8742 18.0585 19.1882 18.2074C19.4934 18.3474 19.9557 18.0148 20.2174 17.4545Z" fill="url(#paint24_linear_159_636)"/>
<path d="M21.3514 17.122C21.1944 16.5268 20.7932 16.1066 20.4705 16.1942C20.1391 16.2817 20.0082 16.8419 20.1652 17.4372C20.3222 18.0324 20.7234 18.4526 21.0462 18.3651C21.3689 18.2775 21.5084 17.7261 21.3514 17.122Z" fill="url(#paint25_linear_159_636)"/>
<path d="M22.0055 16.1418C21.4996 15.7829 20.9327 15.7216 20.7408 16.0017C20.5489 16.2818 20.8018 16.7983 21.299 17.1484C21.8048 17.5073 22.3718 17.5686 22.5637 17.2885C22.7643 17.0171 22.5113 16.5007 22.0055 16.1418Z" fill="url(#paint26_linear_159_636)"/>
<path d="M21.8835 14.9685C21.2729 15.021 20.7932 15.3361 20.8194 15.6775C20.8455 16.0189 21.3689 16.2465 21.9881 16.194C22.5987 16.1415 23.0784 15.8263 23.0522 15.4849C23.026 15.1435 22.5027 14.9159 21.8835 14.9685Z" fill="url(#paint27_linear_159_636)"/>
<path d="M21.0374 14.1458C20.6013 14.5835 20.4443 15.135 20.6798 15.3713C20.9153 15.6077 21.4648 15.4501 21.9009 15.0124C22.337 14.5747 22.494 14.0232 22.2585 13.7869C22.023 13.5505 21.4735 13.7081 21.0374 14.1458Z" fill="url(#paint28_linear_159_636)"/>
<path d="M21.107 15.8439C21.0721 16.2816 20.6884 16.5967 20.2523 16.5617C19.8162 16.5267 19.5022 16.1415 19.5371 15.7039C19.572 15.2662 19.9557 14.951 20.3918 14.9861C20.8279 15.0211 21.1419 15.4062 21.107 15.8439Z" fill="url(#paint29_radial_159_636)"/>
<path d="M35.8384 14.7675C35.8384 15.5116 36.1698 16.1156 36.571 16.1156C36.981 16.1156 37.3037 15.5116 37.3037 14.7675C37.3037 14.0234 36.9722 13.4194 36.571 13.4194C36.1611 13.4194 35.8384 14.0234 35.8384 14.7675Z" fill="url(#paint30_linear_159_636)"/>
<path d="M34.7656 15.6954C35.2453 16.2644 35.882 16.5095 36.196 16.2469C36.51 15.9843 36.3704 15.3102 35.8994 14.7413C35.4197 14.1723 34.783 13.9272 34.469 14.1898C34.1551 14.4524 34.2859 15.1264 34.7656 15.6954Z" fill="url(#paint31_linear_159_636)"/>
<path d="M34.5477 17.1047C35.2804 17.236 35.9258 17.0084 35.9956 16.6145C36.0654 16.2206 35.5333 15.7829 34.8007 15.6516C34.068 15.5203 33.4226 15.7479 33.3528 16.1418C33.2831 16.5357 33.8151 16.9734 34.5477 17.1047Z" fill="url(#paint32_linear_159_636)"/>
<path d="M35.2716 18.3212C35.9171 17.9535 36.2659 17.3583 36.0653 17.0081C35.8647 16.658 35.1757 16.6667 34.539 17.0431C33.8936 17.4108 33.5447 18.006 33.7453 18.3562C33.9459 18.7063 34.6349 18.6888 35.2716 18.3212Z" fill="url(#paint33_linear_159_636)"/>
<path d="M36.6147 18.7765C36.8677 18.0762 36.763 17.4022 36.3793 17.2621C35.9955 17.1221 35.4809 17.5773 35.228 18.2776C34.975 18.9779 35.0797 19.6519 35.4635 19.7919C35.8472 19.932 36.3618 19.4768 36.6147 18.7765Z" fill="url(#paint34_linear_159_636)"/>
<path d="M37.9404 18.2688C37.6875 17.5685 37.1729 17.1133 36.7891 17.2533C36.4054 17.3934 36.3007 18.0762 36.5536 18.7677C36.8066 19.468 37.3212 19.9232 37.7049 19.7832C38.0887 19.6431 38.1934 18.9691 37.9404 18.2688Z" fill="url(#paint35_linear_159_636)"/>
<path d="M38.6208 17.0258C37.9753 16.6582 37.295 16.6407 37.0944 16.9908C36.8938 17.3409 37.2427 17.9362 37.8881 18.3038C38.5335 18.6715 39.2138 18.689 39.4145 18.3389C39.6151 17.9887 39.2662 17.4022 38.6208 17.0258Z" fill="url(#paint36_linear_159_636)"/>
<path d="M38.3505 15.6338C37.6178 15.7651 37.0858 16.194 37.1556 16.5967C37.2253 16.9994 37.8708 17.2182 38.6034 17.0869C39.336 16.9556 39.8681 16.5267 39.7983 16.124C39.7285 15.7213 39.0831 15.5025 38.3505 15.6338Z" fill="url(#paint37_linear_159_636)"/>
<path d="M37.2514 14.7411C36.7717 15.3101 36.6409 15.9842 36.9549 16.2468C37.2689 16.5094 37.9056 16.2643 38.3853 15.6953C38.865 15.1263 38.9958 14.4523 38.6818 14.1897C38.3678 13.9183 37.7224 14.1721 37.2514 14.7411Z" fill="url(#paint38_linear_159_636)"/>
<path d="M37.4434 16.7632C37.4434 17.2447 37.0509 17.6386 36.5712 17.6386C36.0915 17.6386 35.699 17.2447 35.699 16.7632C35.699 16.2818 36.0915 15.8878 36.5712 15.8878C37.0509 15.8791 37.4434 16.273 37.4434 16.7632Z" fill="url(#paint39_radial_159_636)"/>
<path d="M53.1516 11.7559C53.1516 12.6838 53.5615 13.4453 54.0761 13.4453C54.5907 13.4453 55.0007 12.6925 55.0007 11.7559C55.0007 10.8192 54.5907 10.0664 54.0761 10.0664C53.5615 10.0664 53.1516 10.8192 53.1516 11.7559Z" fill="url(#paint40_linear_159_636)"/>
<path d="M51.8083 12.9205C52.4014 13.6383 53.2039 13.9447 53.5963 13.6208C53.9888 13.2881 53.8231 12.4478 53.2213 11.73C52.6282 11.0122 51.8258 10.7058 51.4333 11.0297C51.0408 11.3623 51.2153 12.2114 51.8083 12.9205Z" fill="url(#paint41_linear_159_636)"/>
<path d="M51.5292 14.6799C52.445 14.8374 53.2561 14.5661 53.3434 14.0584C53.4306 13.5506 52.759 13.0167 51.8519 12.8503C50.9361 12.6928 50.125 12.9641 50.0377 13.4719C49.9505 13.9796 50.6134 14.5223 51.5292 14.6799Z" fill="url(#paint42_linear_159_636)"/>
<path d="M52.4451 16.2115C53.2475 15.7476 53.6923 15.0123 53.4394 14.5658C53.1865 14.1194 52.323 14.1369 51.5206 14.6096C50.7181 15.0736 50.2733 15.8089 50.5263 16.2553C50.7879 16.693 51.6427 16.6755 52.4451 16.2115Z" fill="url(#paint43_linear_159_636)"/>
<path d="M54.1283 16.7896C54.4423 15.9142 54.3115 15.0651 53.8318 14.89C53.352 14.715 52.7066 15.284 52.3926 16.1593C52.0786 17.0347 52.2095 17.8838 52.6892 18.0589C53.1689 18.2339 53.8056 17.665 54.1283 16.7896Z" fill="url(#paint44_linear_159_636)"/>
<path d="M55.7855 16.1505C55.4715 15.2752 54.8261 14.7062 54.3464 14.8813C53.8667 15.0563 53.7359 15.9054 54.0499 16.7808C54.3638 17.6562 55.0093 18.2252 55.489 18.0501C55.9687 17.875 56.0995 17.0259 55.7855 16.1505Z" fill="url(#paint45_linear_159_636)"/>
<path d="M56.6404 14.5923C55.838 14.1284 54.9745 14.1109 54.7216 14.5486C54.4686 14.995 54.9135 15.7303 55.7159 16.1942C56.5183 16.6582 57.3818 16.6757 57.6347 16.238C57.8964 15.7916 57.4515 15.0563 56.6404 14.5923Z" fill="url(#paint46_linear_159_636)"/>
<path d="M56.3001 12.8416C55.3843 12.9991 54.7127 13.5419 54.8087 14.0496C54.8959 14.5573 55.707 14.8286 56.6228 14.6711C57.5387 14.5135 58.2102 13.9708 58.1143 13.4631C58.0184 12.9554 57.2159 12.684 56.3001 12.8416Z" fill="url(#paint47_linear_159_636)"/>
<path d="M54.9221 11.7213C54.329 12.4391 54.1546 13.2794 54.5471 13.6121C54.9396 13.9447 55.742 13.6296 56.3351 12.9118C56.9282 12.194 57.1026 11.3536 56.7101 11.021C56.3176 10.6971 55.5239 11.0122 54.9221 11.7213Z" fill="url(#paint48_linear_159_636)"/>
<path d="M55.1662 14.2597C55.1662 14.8725 54.6778 15.3627 54.0672 15.3627C53.4567 15.3627 52.9683 14.8725 52.9683 14.2597C52.9683 13.6469 53.4567 13.1567 54.0672 13.1567C54.669 13.1567 55.1662 13.6469 55.1662 14.2597Z" fill="url(#paint49_radial_159_636)"/>
<path d="M56.6316 21.7965C56.6316 22.7769 57.0677 23.5822 57.6085 23.5822C58.1492 23.5822 58.5853 22.7857 58.5853 21.7965C58.5853 20.8073 58.1492 20.0107 57.6085 20.0107C57.0677 20.0107 56.6316 20.8073 56.6316 21.7965Z" fill="url(#paint50_linear_159_636)"/>
<path d="M55.2186 23.0308C55.8466 23.7836 56.6926 24.1163 57.1113 23.7661C57.5212 23.416 57.3468 22.5231 56.7188 21.7703C56.0908 21.0175 55.2448 20.6848 54.8261 21.035C54.4075 21.3851 54.5906 22.278 55.2186 23.0308Z" fill="url(#paint51_linear_159_636)"/>
<path d="M54.922 24.8867C55.8902 25.0617 56.7449 24.7641 56.8408 24.2301C56.9368 23.6962 56.2303 23.1272 55.2622 22.9521C54.294 22.777 53.4393 23.0747 53.3433 23.6086C53.2474 24.1514 53.9626 24.7203 54.922 24.8867Z" fill="url(#paint52_linear_159_636)"/>
<path d="M55.8901 26.506C56.7361 26.0158 57.2071 25.2367 56.9368 24.764C56.6664 24.2913 55.7593 24.3176 54.9133 24.8078C54.0672 25.298 53.5962 26.077 53.8666 26.5497C54.137 27.0137 55.0441 26.9962 55.8901 26.506Z" fill="url(#paint53_linear_159_636)"/>
<path d="M57.6696 27.1189C58.001 26.191 57.8702 25.2894 57.3643 25.1056C56.8584 24.9217 56.1781 25.517 55.838 26.4449C55.5065 27.3728 55.6374 28.2744 56.1433 28.4582C56.6491 28.642 57.3294 28.038 57.6696 27.1189Z" fill="url(#paint54_linear_159_636)"/>
<path d="M59.4139 26.4361C59.0825 25.5082 58.3934 24.913 57.8876 25.0968C57.3817 25.2806 57.2421 26.1822 57.5823 27.1101C57.9137 28.038 58.6028 28.6333 59.1086 28.4494C59.6145 28.2656 59.7541 27.364 59.4139 26.4361Z" fill="url(#paint55_linear_159_636)"/>
<path d="M60.3296 24.7902C59.4835 24.3 58.5765 24.2825 58.3061 24.7464C58.0357 25.2191 58.5067 25.9895 59.3527 26.4884C60.1987 26.9786 61.1058 26.9961 61.3762 26.5322C61.6466 26.0595 61.1756 25.2804 60.3296 24.7902Z" fill="url(#paint56_linear_159_636)"/>
<path d="M59.9722 22.9433C59.004 23.1184 58.2975 23.6874 58.3935 24.2214C58.4894 24.7553 59.3442 25.0442 60.3123 24.8779C61.2805 24.7028 61.9869 24.1338 61.891 23.5998C61.795 23.0659 60.9316 22.7682 59.9722 22.9433Z" fill="url(#paint57_linear_159_636)"/>
<path d="M58.5067 21.7615C57.8787 22.5143 57.6955 23.4072 58.1142 23.7573C58.5241 24.1075 59.3702 23.7748 60.0069 23.022C60.6348 22.2692 60.818 21.3763 60.3994 21.0262C59.9894 20.676 59.1434 21.0087 58.5067 21.7615Z" fill="url(#paint58_linear_159_636)"/>
<path d="M58.7597 24.4401C58.7597 25.0791 58.2364 25.6044 57.5997 25.6044C56.963 25.6044 56.4397 25.0791 56.4397 24.4401C56.4397 23.8011 56.963 23.2759 57.5997 23.2759C58.2451 23.2759 58.7597 23.7923 58.7597 24.4401Z" fill="url(#paint59_radial_159_636)"/>
<defs>
<linearGradient id="paint0_linear_159_636" x1="73.7955" y1="29.9804" x2="73.7955" y2="26.2608" gradientUnits="userSpaceOnUse">
<stop stop-color="#EDF7F0"/>
<stop offset="0.0375" stop-color="#E3E8DB"/>
<stop offset="0.1374" stop-color="#C9C6A8"/>
<stop offset="0.2421" stop-color="#B3A77C"/>
<stop offset="0.3496" stop-color="#A08D56"/>
<stop offset="0.4608" stop-color="#917737"/>
<stop offset="0.5766" stop-color="#85671F"/>
<stop offset="0.6992" stop-color="#7D5B0E"/>
<stop offset="0.8332" stop-color="#785404"/>
<stop offset="1" stop-color="#765201"/>
</linearGradient>
<linearGradient id="paint1_linear_159_636" x1="73.2717" y1="30.1782" x2="70.8793" y2="27.3376" gradientUnits="userSpaceOnUse">
<stop stop-color="#EDF7F0"/>
<stop offset="0.0375" stop-color="#E3E8DB"/>
<stop offset="0.1374" stop-color="#C9C6A8"/>
<stop offset="0.2421" stop-color="#B3A77C"/>
<stop offset="0.3496" stop-color="#A08D56"/>
<stop offset="0.4608" stop-color="#917737"/>
<stop offset="0.5766" stop-color="#85671F"/>
<stop offset="0.6992" stop-color="#7D5B0E"/>
<stop offset="0.8332" stop-color="#785404"/>
<stop offset="1" stop-color="#765201"/>
</linearGradient>
<linearGradient id="paint2_linear_159_636" x1="72.9975" y1="30.6671" x2="69.347" y2="30.0259" gradientUnits="userSpaceOnUse">
<stop stop-color="#EDF7F0"/>
<stop offset="0.0375" stop-color="#E3E8DB"/>
<stop offset="0.1374" stop-color="#C9C6A8"/>
<stop offset="0.2421" stop-color="#B3A77C"/>
<stop offset="0.3496" stop-color="#A08D56"/>
<stop offset="0.4608" stop-color="#917737"/>
<stop offset="0.5766" stop-color="#85671F"/>
<stop offset="0.6992" stop-color="#7D5B0E"/>
<stop offset="0.8332" stop-color="#785404"/>
<stop offset="1" stop-color="#765201"/>
</linearGradient>
<linearGradient id="paint3_linear_159_636" x1="73.1002" y1="31.2189" x2="69.885" y2="33.0686" gradientUnits="userSpaceOnUse">
<stop stop-color="#EDF7F0"/>
<stop offset="0.0375" stop-color="#E3E8DB"/>
<stop offset="0.1374" stop-color="#C9C6A8"/>
<stop offset="0.2421" stop-color="#B3A77C"/>
<stop offset="0.3496" stop-color="#A08D56"/>
<stop offset="0.4608" stop-color="#917737"/>
<stop offset="0.5766" stop-color="#85671F"/>
<stop offset="0.6992" stop-color="#7D5B0E"/>
<stop offset="0.8332" stop-color="#785404"/>
<stop offset="1" stop-color="#765201"/>
</linearGradient>
<linearGradient id="paint4_linear_159_636" x1="73.5326" y1="31.5756" x2="72.257" y2="35.0677" gradientUnits="userSpaceOnUse">
<stop stop-color="#EDF7F0"/>
<stop offset="0.0375" stop-color="#E3E8DB"/>
<stop offset="0.1374" stop-color="#C9C6A8"/>
<stop offset="0.2421" stop-color="#B3A77C"/>
<stop offset="0.3496" stop-color="#A08D56"/>
<stop offset="0.4608" stop-color="#917737"/>
<stop offset="0.5766" stop-color="#85671F"/>
<stop offset="0.6992" stop-color="#7D5B0E"/>
<stop offset="0.8332" stop-color="#785404"/>
<stop offset="1" stop-color="#765201"/>
</linearGradient>
<linearGradient id="paint5_linear_159_636" x1="74.092" y1="31.5696" x2="75.3676" y2="35.0618" gradientUnits="userSpaceOnUse">
<stop stop-color="#EDF7F0"/>
<stop offset="0.0375" stop-color="#E3E8DB"/>
<stop offset="0.1374" stop-color="#C9C6A8"/>
<stop offset="0.2421" stop-color="#B3A77C"/>
<stop offset="0.3496" stop-color="#A08D56"/>
<stop offset="0.4608" stop-color="#917737"/>
<stop offset="0.5766" stop-color="#85671F"/>
<stop offset="0.6992" stop-color="#7D5B0E"/>
<stop offset="0.8332" stop-color="#785404"/>
<stop offset="1" stop-color="#765201"/>
</linearGradient>
<linearGradient id="paint6_linear_159_636" x1="74.5169" y1="31.2038" x2="77.7321" y2="33.0534" gradientUnits="userSpaceOnUse">
<stop stop-color="#EDF7F0"/>
<stop offset="0.0375" stop-color="#E3E8DB"/>
<stop offset="0.1374" stop-color="#C9C6A8"/>
<stop offset="0.2421" stop-color="#B3A77C"/>
<stop offset="0.3496" stop-color="#A08D56"/>
<stop offset="0.4608" stop-color="#917737"/>
<stop offset="0.5766" stop-color="#85671F"/>
<stop offset="0.6992" stop-color="#7D5B0E"/>
<stop offset="0.8332" stop-color="#785404"/>
<stop offset="1" stop-color="#765201"/>
</linearGradient>
<linearGradient id="paint7_linear_159_636" x1="74.608" y1="30.6502" x2="78.2586" y2="30.009" gradientUnits="userSpaceOnUse">
<stop stop-color="#EDF7F0"/>
<stop offset="0.0375" stop-color="#E3E8DB"/>
<stop offset="0.1374" stop-color="#C9C6A8"/>
<stop offset="0.2421" stop-color="#B3A77C"/>
<stop offset="0.3496" stop-color="#A08D56"/>
<stop offset="0.4608" stop-color="#917737"/>
<stop offset="0.5766" stop-color="#85671F"/>
<stop offset="0.6992" stop-color="#7D5B0E"/>
<stop offset="0.8332" stop-color="#785404"/>
<stop offset="1" stop-color="#765201"/>
</linearGradient>
<linearGradient id="paint8_linear_159_636" x1="74.3231" y1="30.1671" x2="76.7155" y2="27.3265" gradientUnits="userSpaceOnUse">
<stop stop-color="#EDF7F0"/>
<stop offset="0.0375" stop-color="#E3E8DB"/>
<stop offset="0.1374" stop-color="#C9C6A8"/>
<stop offset="0.2421" stop-color="#B3A77C"/>
<stop offset="0.3496" stop-color="#A08D56"/>
<stop offset="0.4608" stop-color="#917737"/>
<stop offset="0.5766" stop-color="#85671F"/>
<stop offset="0.6992" stop-color="#7D5B0E"/>
<stop offset="0.8332" stop-color="#785404"/>
<stop offset="1" stop-color="#765201"/>
</linearGradient>
<radialGradient id="paint9_radial_159_636" cx="0" cy="0" r="1" gradientUnits="userSpaceOnUse" gradientTransform="translate(73.7899 30.8816) scale(1.37859 1.3836)">
<stop stop-color="white"/>
<stop offset="0.1083" stop-color="#FEEBED"/>
<stop offset="0.3301" stop-color="#FDB8C0"/>
<stop offset="0.6464" stop-color="#FB6476"/>
<stop offset="1" stop-color="#F8001D"/>
</radialGradient>
<linearGradient id="paint10_linear_159_636" x1="12.7248" y1="26.7559" x2="12.7248" y2="24.3574" gradientUnits="userSpaceOnUse">
<stop stop-color="#EDF7F0"/>
<stop offset="1" stop-color="#4978BC"/>
</linearGradient>
<linearGradient id="paint11_linear_159_636" x1="12.3873" y1="26.8831" x2="10.8446" y2="25.0514" gradientUnits="userSpaceOnUse">
<stop stop-color="#EDF7F0"/>
<stop offset="1" stop-color="#4978BC"/>
</linearGradient>
<linearGradient id="paint12_linear_159_636" x1="12.2104" y1="27.1988" x2="9.85636" y2="26.7853" gradientUnits="userSpaceOnUse">
<stop stop-color="#EDF7F0"/>
<stop offset="1" stop-color="#4978BC"/>
</linearGradient>
<linearGradient id="paint13_linear_159_636" x1="12.2765" y1="27.5547" x2="10.2032" y2="28.7474" gradientUnits="userSpaceOnUse">
<stop stop-color="#EDF7F0"/>
<stop offset="1" stop-color="#4978BC"/>
</linearGradient>
<linearGradient id="paint14_linear_159_636" x1="12.5553" y1="27.7845" x2="11.7327" y2="30.0364" gradientUnits="userSpaceOnUse">
<stop stop-color="#EDF7F0"/>
<stop offset="1" stop-color="#4978BC"/>
</linearGradient>
<linearGradient id="paint15_linear_159_636" x1="12.9161" y1="27.7806" x2="13.7387" y2="30.0325" gradientUnits="userSpaceOnUse">
<stop stop-color="#EDF7F0"/>
<stop offset="1" stop-color="#4978BC"/>
</linearGradient>
<linearGradient id="paint16_linear_159_636" x1="13.1899" y1="27.5449" x2="15.2633" y2="28.7377" gradientUnits="userSpaceOnUse">
<stop stop-color="#EDF7F0"/>
<stop offset="1" stop-color="#4978BC"/>
</linearGradient>
<linearGradient id="paint17_linear_159_636" x1="13.249" y1="27.1877" x2="15.6029" y2="26.7742" gradientUnits="userSpaceOnUse">
<stop stop-color="#EDF7F0"/>
<stop offset="1" stop-color="#4978BC"/>
</linearGradient>
<linearGradient id="paint18_linear_159_636" x1="13.0651" y1="26.8763" x2="14.6078" y2="25.0446" gradientUnits="userSpaceOnUse">
<stop stop-color="#EDF7F0"/>
<stop offset="1" stop-color="#4978BC"/>
</linearGradient>
<radialGradient id="paint19_radial_159_636" cx="0" cy="0" r="1" gradientUnits="userSpaceOnUse" gradientTransform="translate(12.7211 27.337) scale(0.780265 0.783103)">
<stop stop-color="#FBED23"/>
<stop offset="0.1902" stop-color="#FBE723"/>
<stop offset="0.4359" stop-color="#FAD721"/>
<stop offset="0.712" stop-color="#F9BD20"/>
<stop offset="1" stop-color="#F8991D"/>
</radialGradient>
<linearGradient id="paint20_linear_159_636" x1="20.3718" y1="15.2318" x2="20.5691" y2="12.9982" gradientUnits="userSpaceOnUse">
<stop stop-color="#EDF7F0"/>
<stop offset="0.0375" stop-color="#E3E8DB"/>
<stop offset="0.1374" stop-color="#C9C6A8"/>
<stop offset="0.2421" stop-color="#B3A77C"/>
<stop offset="0.3496" stop-color="#A08D56"/>
<stop offset="0.4608" stop-color="#917737"/>
<stop offset="0.5766" stop-color="#85671F"/>
<stop offset="0.6992" stop-color="#7D5B0E"/>
<stop offset="0.8332" stop-color="#785404"/>
<stop offset="1" stop-color="#765201"/>
</linearGradient>
<linearGradient id="paint21_linear_159_636" x1="20.0488" y1="15.3223" x2="18.7618" y2="13.4892" gradientUnits="userSpaceOnUse">
<stop stop-color="#EDF7F0"/>
<stop offset="0.0375" stop-color="#E3E8DB"/>
<stop offset="0.1374" stop-color="#C9C6A8"/>
<stop offset="0.2421" stop-color="#B3A77C"/>
<stop offset="0.3496" stop-color="#A08D56"/>
<stop offset="0.4608" stop-color="#917737"/>
<stop offset="0.5766" stop-color="#85671F"/>
<stop offset="0.6992" stop-color="#7D5B0E"/>
<stop offset="0.8332" stop-color="#785404"/>
<stop offset="1" stop-color="#765201"/>
</linearGradient>
<linearGradient id="paint22_linear_159_636" x1="19.8577" y1="15.6021" x2="17.6987" y2="15.0245" gradientUnits="userSpaceOnUse">
<stop stop-color="#EDF7F0"/>
<stop offset="0.0375" stop-color="#E3E8DB"/>
<stop offset="0.1374" stop-color="#C9C6A8"/>
<stop offset="0.2421" stop-color="#B3A77C"/>
<stop offset="0.3496" stop-color="#A08D56"/>
<stop offset="0.4608" stop-color="#917737"/>
<stop offset="0.5766" stop-color="#85671F"/>
<stop offset="0.6992" stop-color="#7D5B0E"/>
<stop offset="0.8332" stop-color="#785404"/>
<stop offset="1" stop-color="#765201"/>
</linearGradient>
<linearGradient id="paint23_linear_159_636" x1="19.8905" y1="15.9382" x2="17.8625" y2="16.8791" gradientUnits="userSpaceOnUse">
<stop stop-color="#EDF7F0"/>
<stop offset="0.0375" stop-color="#E3E8DB"/>
<stop offset="0.1374" stop-color="#C9C6A8"/>
<stop offset="0.2421" stop-color="#B3A77C"/>
<stop offset="0.3496" stop-color="#A08D56"/>
<stop offset="0.4608" stop-color="#917737"/>
<stop offset="0.5766" stop-color="#85671F"/>
<stop offset="0.6992" stop-color="#7D5B0E"/>
<stop offset="0.8332" stop-color="#785404"/>
<stop offset="1" stop-color="#765201"/>
</linearGradient>
<linearGradient id="paint24_linear_159_636" x1="20.1306" y1="16.1756" x2="19.1796" y2="18.2049" gradientUnits="userSpaceOnUse">
<stop stop-color="#EDF7F0"/>
<stop offset="0.0375" stop-color="#E3E8DB"/>
<stop offset="0.1374" stop-color="#C9C6A8"/>
<stop offset="0.2421" stop-color="#B3A77C"/>
<stop offset="0.3496" stop-color="#A08D56"/>
<stop offset="0.4608" stop-color="#917737"/>
<stop offset="0.5766" stop-color="#85671F"/>
<stop offset="0.6992" stop-color="#7D5B0E"/>
<stop offset="0.8332" stop-color="#785404"/>
<stop offset="1" stop-color="#765201"/>
</linearGradient>
<linearGradient id="paint25_linear_159_636" x1="20.4672" y1="16.203" x2="21.0483" y2="18.3683" gradientUnits="userSpaceOnUse">
<stop stop-color="#EDF7F0"/>
<stop offset="0.0375" stop-color="#E3E8DB"/>
<stop offset="0.1374" stop-color="#C9C6A8"/>
<stop offset="0.2421" stop-color="#B3A77C"/>
<stop offset="0.3496" stop-color="#A08D56"/>
<stop offset="0.4608" stop-color="#917737"/>
<stop offset="0.5766" stop-color="#85671F"/>
<stop offset="0.6992" stop-color="#7D5B0E"/>
<stop offset="0.8332" stop-color="#785404"/>
<stop offset="1" stop-color="#765201"/>
</linearGradient>
<linearGradient id="paint26_linear_159_636" x1="20.7417" y1="16.0042" x2="22.5755" y2="17.2851" gradientUnits="userSpaceOnUse">
<stop stop-color="#EDF7F0"/>
<stop offset="0.0375" stop-color="#E3E8DB"/>
<stop offset="0.1374" stop-color="#C9C6A8"/>
<stop offset="0.2421" stop-color="#B3A77C"/>
<stop offset="0.3496" stop-color="#A08D56"/>
<stop offset="0.4608" stop-color="#917737"/>
<stop offset="0.5766" stop-color="#85671F"/>
<stop offset="0.6992" stop-color="#7D5B0E"/>
<stop offset="0.8332" stop-color="#785404"/>
<stop offset="1" stop-color="#765201"/>
</linearGradient>
<linearGradient id="paint27_linear_159_636" x1="20.8264" y1="15.6758" x2="23.0523" y2="15.483" gradientUnits="userSpaceOnUse">
<stop stop-color="#EDF7F0"/>
<stop offset="0.0375" stop-color="#E3E8DB"/>
<stop offset="0.1374" stop-color="#C9C6A8"/>
<stop offset="0.2421" stop-color="#B3A77C"/>
<stop offset="0.3496" stop-color="#A08D56"/>
<stop offset="0.4608" stop-color="#917737"/>
<stop offset="0.5766" stop-color="#85671F"/>
<stop offset="0.6992" stop-color="#7D5B0E"/>
<stop offset="0.8332" stop-color="#785404"/>
<stop offset="1" stop-color="#765201"/>
</linearGradient>
<linearGradient id="paint28_linear_159_636" x1="20.6806" y1="15.3724" x2="22.2671" y2="13.7934" gradientUnits="userSpaceOnUse">
<stop stop-color="#EDF7F0"/>
<stop offset="0.0375" stop-color="#E3E8DB"/>
<stop offset="0.1374" stop-color="#C9C6A8"/>
<stop offset="0.2421" stop-color="#B3A77C"/>
<stop offset="0.3496" stop-color="#A08D56"/>
<stop offset="0.4608" stop-color="#917737"/>
<stop offset="0.5766" stop-color="#85671F"/>
<stop offset="0.6992" stop-color="#7D5B0E"/>
<stop offset="0.8332" stop-color="#785404"/>
<stop offset="1" stop-color="#765201"/>
</linearGradient>
<radialGradient id="paint29_radial_159_636" cx="0" cy="0" r="1" gradientUnits="userSpaceOnUse" gradientTransform="translate(20.3209 15.7722) rotate(5.04974) scale(0.786095 0.788909)">
<stop stop-color="#FB99FF"/>
<stop offset="0.1202" stop-color="#FB8CEB"/>
<stop offset="0.3664" stop-color="#FA69B8"/>
<stop offset="0.713" stop-color="#F93166"/>
<stop offset="1" stop-color="#F8001D"/>
</radialGradient>
<linearGradient id="paint30_linear_159_636" x1="36.571" y1="16.1093" x2="36.571" y2="13.4178" gradientUnits="userSpaceOnUse">
<stop stop-color="#EDF7F0"/>
<stop offset="1" stop-color="#4900BC"/>
</linearGradient>
<linearGradient id="paint31_linear_159_636" x1="36.1921" y1="16.2522" x2="34.4609" y2="14.1967" gradientUnits="userSpaceOnUse">
<stop stop-color="#EDF7F0"/>
<stop offset="1" stop-color="#4900BC"/>
</linearGradient>
<linearGradient id="paint32_linear_159_636" x1="35.9936" y1="16.606" x2="33.3521" y2="16.1421" gradientUnits="userSpaceOnUse">
<stop stop-color="#EDF7F0"/>
<stop offset="1" stop-color="#4900BC"/>
</linearGradient>
<linearGradient id="paint33_linear_159_636" x1="36.0682" y1="17.0052" x2="33.7415" y2="18.3437" gradientUnits="userSpaceOnUse">
<stop stop-color="#EDF7F0"/>
<stop offset="1" stop-color="#4900BC"/>
</linearGradient>
<linearGradient id="paint34_linear_159_636" x1="36.3809" y1="17.2633" x2="35.4579" y2="19.7903" gradientUnits="userSpaceOnUse">
<stop stop-color="#EDF7F0"/>
<stop offset="1" stop-color="#4900BC"/>
</linearGradient>
<linearGradient id="paint35_linear_159_636" x1="36.7857" y1="17.2588" x2="37.7088" y2="19.7859" gradientUnits="userSpaceOnUse">
<stop stop-color="#EDF7F0"/>
<stop offset="1" stop-color="#4900BC"/>
</linearGradient>
<linearGradient id="paint36_linear_159_636" x1="37.0931" y1="16.9944" x2="39.4196" y2="18.3329" gradientUnits="userSpaceOnUse">
<stop stop-color="#EDF7F0"/>
<stop offset="1" stop-color="#4900BC"/>
</linearGradient>
<linearGradient id="paint37_linear_159_636" x1="37.1591" y1="16.5934" x2="39.8007" y2="16.1295" gradientUnits="userSpaceOnUse">
<stop stop-color="#EDF7F0"/>
<stop offset="1" stop-color="#4900BC"/>
</linearGradient>
<linearGradient id="paint38_linear_159_636" x1="36.9529" y1="16.244" x2="38.6841" y2="14.1885" gradientUnits="userSpaceOnUse">
<stop stop-color="#EDF7F0"/>
<stop offset="1" stop-color="#4900BC"/>
</linearGradient>
<radialGradient id="paint39_radial_159_636" cx="0" cy="0" r="1" gradientUnits="userSpaceOnUse" gradientTransform="translate(36.5671 16.761) scale(0.875596 0.878781)">
<stop stop-color="#FB73FF"/>
<stop offset="0.5371" stop-color="#F93483"/>
<stop offset="1" stop-color="#F8001D"/>
</radialGradient>
<linearGradient id="paint40_linear_159_636" x1="54.0715" y1="13.4405" x2="54.0715" y2="10.0661" gradientUnits="userSpaceOnUse">
<stop stop-color="#EDF7F0"/>
<stop offset="1" stop-color="#4978BC"/>
</linearGradient>
<linearGradient id="paint41_linear_159_636" x1="53.5964" y1="13.6201" x2="51.4259" y2="11.043" gradientUnits="userSpaceOnUse">
<stop stop-color="#EDF7F0"/>
<stop offset="1" stop-color="#4978BC"/>
</linearGradient>
<linearGradient id="paint42_linear_159_636" x1="53.3472" y1="14.0638" x2="50.0353" y2="13.4821" gradientUnits="userSpaceOnUse">
<stop stop-color="#EDF7F0"/>
<stop offset="1" stop-color="#4978BC"/>
</linearGradient>
<linearGradient id="paint43_linear_159_636" x1="53.4408" y1="14.5643" x2="50.5237" y2="16.2424" gradientUnits="userSpaceOnUse">
<stop stop-color="#EDF7F0"/>
<stop offset="1" stop-color="#4978BC"/>
</linearGradient>
<linearGradient id="paint44_linear_159_636" x1="53.8328" y1="14.8879" x2="52.6755" y2="18.0562" gradientUnits="userSpaceOnUse">
<stop stop-color="#EDF7F0"/>
<stop offset="1" stop-color="#4978BC"/>
</linearGradient>
<linearGradient id="paint45_linear_159_636" x1="54.3405" y1="14.8824" x2="55.4978" y2="18.0507" gradientUnits="userSpaceOnUse">
<stop stop-color="#EDF7F0"/>
<stop offset="1" stop-color="#4978BC"/>
</linearGradient>
<linearGradient id="paint46_linear_159_636" x1="54.726" y1="14.5508" x2="57.643" y2="16.2289" gradientUnits="userSpaceOnUse">
<stop stop-color="#EDF7F0"/>
<stop offset="1" stop-color="#4978BC"/>
</linearGradient>
<linearGradient id="paint47_linear_159_636" x1="54.8086" y1="14.0482" x2="58.1205" y2="13.4665" gradientUnits="userSpaceOnUse">
<stop stop-color="#EDF7F0"/>
<stop offset="1" stop-color="#4978BC"/>
</linearGradient>
<linearGradient id="paint48_linear_159_636" x1="54.5502" y1="13.61" x2="56.7207" y2="11.0329" gradientUnits="userSpaceOnUse">
<stop stop-color="#EDF7F0"/>
<stop offset="1" stop-color="#4978BC"/>
</linearGradient>
<radialGradient id="paint49_radial_159_636" cx="0" cy="0" r="1" gradientUnits="userSpaceOnUse" gradientTransform="translate(54.0662 14.2581) scale(1.09783 1.10182)">
<stop stop-color="#FBED23"/>
<stop offset="0.1902" stop-color="#FBE723"/>
<stop offset="0.4359" stop-color="#FAD721"/>
<stop offset="0.712" stop-color="#F9BD20"/>
<stop offset="1" stop-color="#F8991D"/>
</radialGradient>
<linearGradient id="paint50_linear_159_636" x1="57.6091" y1="23.5757" x2="57.6091" y2="20.0096" gradientUnits="userSpaceOnUse">
<stop stop-color="#EDF7F0"/>
<stop offset="1" stop-color="#4900BC"/>
</linearGradient>
<linearGradient id="paint51_linear_159_636" x1="57.1071" y1="23.7651" x2="54.8133" y2="21.0416" gradientUnits="userSpaceOnUse">
<stop stop-color="#EDF7F0"/>
<stop offset="1" stop-color="#4900BC"/>
</linearGradient>
<linearGradient id="paint52_linear_159_636" x1="56.8439" y1="24.2341" x2="53.3439" y2="23.6193" gradientUnits="userSpaceOnUse">
<stop stop-color="#EDF7F0"/>
<stop offset="1" stop-color="#4900BC"/>
</linearGradient>
<linearGradient id="paint53_linear_159_636" x1="56.9425" y1="24.7631" x2="53.8599" y2="26.5365" gradientUnits="userSpaceOnUse">
<stop stop-color="#EDF7F0"/>
<stop offset="1" stop-color="#4900BC"/>
</linearGradient>
<linearGradient id="paint54_linear_159_636" x1="57.3571" y1="25.105" x2="56.1341" y2="28.4531" gradientUnits="userSpaceOnUse">
<stop stop-color="#EDF7F0"/>
<stop offset="1" stop-color="#4900BC"/>
</linearGradient>
<linearGradient id="paint55_linear_159_636" x1="57.8935" y1="25.0991" x2="59.1164" y2="28.4472" gradientUnits="userSpaceOnUse">
<stop stop-color="#EDF7F0"/>
<stop offset="1" stop-color="#4900BC"/>
</linearGradient>
<linearGradient id="paint56_linear_159_636" x1="58.3005" y1="24.7486" x2="61.3831" y2="26.5219" gradientUnits="userSpaceOnUse">
<stop stop-color="#EDF7F0"/>
<stop offset="1" stop-color="#4900BC"/>
</linearGradient>
<linearGradient id="paint57_linear_159_636" x1="58.3881" y1="24.2176" x2="61.888" y2="23.6029" gradientUnits="userSpaceOnUse">
<stop stop-color="#EDF7F0"/>
<stop offset="1" stop-color="#4900BC"/>
</linearGradient>
<linearGradient id="paint58_linear_159_636" x1="58.1148" y1="23.7543" x2="60.4085" y2="21.0309" gradientUnits="userSpaceOnUse">
<stop stop-color="#EDF7F0"/>
<stop offset="1" stop-color="#4900BC"/>
</linearGradient>
<radialGradient id="paint59_radial_159_636" cx="0" cy="0" r="1" gradientUnits="userSpaceOnUse" gradientTransform="translate(57.6036 24.4393) scale(1.16011 1.16433)">
<stop stop-color="#FB73FF"/>
<stop offset="0.5371" stop-color="#F93483"/>
<stop offset="1" stop-color="#F8001D"/>
</radialGradient>
</defs>
</svg>
